<svg width="328" height="329" viewBox="0 0 328 329" fill="none" xmlns="http://www.w3.org/2000/svg">
<path d="M268.998 90.6084C268.998 90.6084 295.365 128.13 315.217 188.992L292.107 206.274C286.997 215.88 280.533 224.696 272.915 232.452L185.246 174.715L234.687 116.483L268.998 90.6084Z" fill="url(#paint0_linear_101_545)"/>
<path d="M272.916 232.45C252.969 206.071 220.833 172.794 220.833 172.794L203.207 176.226C202.3 182.171 201.966 188.189 202.207 194.197L249.671 248.728C258.784 244.919 266.578 238.835 272.916 232.45Z" fill="#DD8E8E"/>
<path d="M205.356 64.2668L189.488 48.3509L205.356 32.435L183.005 10.0146L167.137 25.9305L151.269 10.0146L128.917 32.435L144.785 48.3509L128.917 64.2668L151.269 86.6871L167.137 70.7713L183.005 86.6871L205.356 64.2668Z" fill="url(#paint1_linear_101_545)"/>
<path d="M57.4896 90.6084L12.7842 182.492L159.466 312.005C161.727 314.003 164.558 315.235 167.557 315.527C170.556 315.819 173.571 315.155 176.173 313.631C191.029 304.922 223.223 285.108 265.311 253.691C266.303 252.951 267.135 252.017 267.756 250.945C268.378 249.873 268.775 248.686 268.925 247.455C269.075 246.224 268.974 244.976 268.628 243.786C268.282 242.595 267.698 241.488 266.913 240.531C256.722 228.145 234.821 202.272 210.749 178.535L167.134 141.484L173.073 120.583C164.283 115.314 155.127 110.685 145.675 106.732C141.248 104.917 136.306 104.825 131.814 106.474L95.6254 119.796L57.4896 90.6084Z" fill="url(#paint2_linear_101_545)"/>
<path d="M210.714 178.494C203.794 171.672 196.695 165.035 189.644 158.937L116.344 161.943L109.67 166.961C111.703 172.356 115.126 177.113 119.591 180.746C124.169 184.512 129.627 187.046 135.451 188.112C141.275 189.178 147.274 188.739 152.882 186.838C159.994 184.545 166.895 181.643 173.51 178.162C173.51 178.162 192.534 185.527 210.714 178.494Z" fill="#DD8E8E"/>
<path d="M234.688 116.484C234.688 116.484 191.625 114.362 165.016 115.834C162.503 115.976 160.053 116.675 157.842 117.882C155.632 119.089 153.716 120.774 152.234 122.814C145.452 132.13 131.678 149.748 116.341 161.943C120.55 166.236 125.244 170.02 130.33 173.218C133.151 174.934 136.341 175.949 139.633 176.179C142.925 176.41 146.224 175.848 149.256 174.54L172.136 164.814C172.136 164.814 198.73 181.96 228.694 164.814L234.688 116.484Z" fill="url(#paint3_linear_101_545)"/>
<path d="M170.946 288.798L143.424 259.342L146.531 256.102C147.72 254.862 148.398 253.218 148.429 251.498C148.461 249.779 147.844 248.111 146.702 246.828L116.699 213.133C116.079 212.437 115.323 211.876 114.477 211.484C113.632 211.093 112.715 210.88 111.784 210.859C110.853 210.837 109.928 211.007 109.065 211.359C108.203 211.711 107.421 212.237 106.77 212.904L103.053 216.71L89.0981 200.985C88.5422 200.359 87.8677 199.85 87.1138 199.487C86.36 199.125 85.5419 198.917 84.7071 198.874C83.8723 198.832 83.0374 198.957 82.251 199.241C81.4646 199.525 80.7424 199.963 80.1263 200.53C72.4813 207.537 65.198 214.932 58.3047 222.684L148.385 302.218L149.253 301.724L167.137 300.393L170.293 297.867C170.958 297.334 171.506 296.669 171.902 295.913C172.298 295.157 172.535 294.328 172.596 293.476C172.657 292.624 172.542 291.769 172.258 290.964C171.974 290.159 171.527 289.421 170.946 288.798Z" fill="#DD8E8E"/>
<path d="M129.509 259.517C132.957 256.033 135.49 253.376 135.49 253.099C135.49 252.228 113.67 226.936 113.67 226.936L106.118 234.105L86.7934 213.107C77.1294 221.947 68.5908 231.95 61.3715 242.89C60.386 244.4 60.0022 246.227 60.2961 248.008C60.59 249.789 61.5402 251.394 62.9584 252.505L140.839 313.58C142.083 314.556 143.614 315.092 145.193 315.107C146.772 315.121 148.312 314.612 149.574 313.66L167.14 300.391L129.509 259.517Z" fill="url(#paint4_linear_101_545)"/>
<path d="M210.713 178.493C210.713 178.493 222.688 174.28 228.407 163.865C228.57 163.576 228.629 163.238 228.571 162.911C228.514 162.583 228.345 162.285 228.093 162.069C227.842 161.852 227.523 161.73 227.191 161.724C226.859 161.717 226.536 161.827 226.276 162.033C221.897 165.512 215.761 170.792 204.339 172.315C205.533 174.238 207.976 176.344 210.713 178.493Z" fill="#DD8E8E"/>
<path d="M313.198 186.272L290.087 203.558C289.663 203.874 289.319 204.287 289.083 204.761C288.998 204.934 280.695 221.405 266.089 234.228C254.003 219.713 233.76 196.323 211.762 174.783C218.304 173.474 224.588 171.099 230.365 167.754C230.75 167.533 231.088 167.239 231.36 166.888C231.632 166.536 231.832 166.135 231.949 165.706C232.066 165.277 232.098 164.829 232.042 164.387C231.987 163.946 231.845 163.52 231.625 163.134C231.406 162.747 231.112 162.408 230.762 162.136C230.412 161.863 230.011 161.662 229.583 161.545C229.156 161.427 228.709 161.396 228.269 161.451C227.829 161.507 227.405 161.649 227.019 161.869C218.964 166.562 209.818 169.042 200.503 169.059C191.188 169.076 182.033 166.63 173.961 161.966C173.498 161.668 172.97 161.488 172.422 161.441C171.874 161.394 171.323 161.482 170.817 161.697L147.937 171.424C145.401 172.52 142.64 172.993 139.885 172.804C137.13 172.614 134.46 171.768 132.097 170.335C128.292 167.943 124.715 165.204 121.41 162.154C135.817 149.931 148.468 133.731 154.959 124.812C156.144 123.175 157.678 121.823 159.449 120.856C161.221 119.888 163.185 119.329 165.199 119.219C191.324 117.767 234.09 119.847 234.519 119.868C235.304 119.881 236.072 119.644 236.714 119.19L271.024 93.3165C271.74 92.7767 272.213 91.9738 272.338 91.0844C272.464 90.195 272.232 89.292 271.694 88.5741C271.156 87.8561 270.355 87.3821 269.469 87.2561C268.582 87.1302 267.682 87.3627 266.966 87.9025L233.628 113.044C226.464 112.718 189.485 111.157 165.494 112.418C165.446 112.389 165.406 112.352 165.355 112.321C159.37 109.102 153.226 106.187 146.947 103.589C141.74 101.451 135.925 101.343 130.643 103.287L96.2004 115.97L59.5416 87.9151C58.8292 87.3775 57.9337 87.1444 57.0505 87.2665C56.1673 87.3887 55.3682 87.8562 54.8274 88.5672C54.2866 89.2781 54.0481 90.1747 54.1639 91.0614C54.2797 91.9481 54.7404 92.7528 55.4455 93.3001L93.5764 122.482C94.0411 122.8 94.5711 123.008 95.1271 123.092C95.6831 123.176 96.2508 123.133 96.7879 122.966L132.976 109.646C136.677 108.283 140.752 108.36 144.399 109.86C148.079 111.366 151.936 113.129 155.899 115.086C153.388 116.519 151.209 118.471 149.506 120.813C142.774 130.063 129.241 147.36 114.243 159.285C113.877 159.576 113.575 159.941 113.356 160.356C113.137 160.771 113.007 161.227 112.973 161.695C112.939 162.163 113.003 162.632 113.16 163.075C113.317 163.517 113.563 163.921 113.884 164.262C118.293 168.775 123.22 172.748 128.561 176.099C132.311 178.401 136.624 179.616 141.021 179.606C144.302 179.605 147.55 178.941 150.571 177.655L171.891 168.591C181.474 173.731 192.247 176.225 203.106 175.816C228.629 200.293 252.365 228.166 264.306 242.681C264.801 243.284 265.169 243.982 265.387 244.732C265.605 245.482 265.668 246.269 265.573 247.045C265.479 247.821 265.228 248.569 264.836 249.244C264.444 249.919 263.919 250.508 263.293 250.973C258.771 254.349 254.369 257.588 250.087 260.689C234.667 243.369 204.656 209.321 204.347 208.971C204.053 208.637 203.697 208.366 203.298 208.171C202.9 207.975 202.467 207.861 202.024 207.834C201.582 207.806 201.138 207.867 200.719 208.012C200.3 208.156 199.913 208.382 199.581 208.677C199.249 208.972 198.977 209.329 198.783 209.729C198.589 210.128 198.474 210.563 198.447 211.007C198.42 211.45 198.48 211.895 198.625 212.316C198.769 212.737 198.994 213.124 199.288 213.458C199.593 213.804 229.008 247.175 244.575 264.667C237.425 269.793 230.666 274.528 224.296 278.872L184.979 233.369C184.39 232.7 183.561 232.291 182.673 232.232C181.785 232.173 180.91 232.467 180.237 233.052C179.565 233.637 179.15 234.464 179.082 235.355C179.015 236.245 179.3 237.126 179.877 237.806L218.664 282.696C211.57 287.481 205.062 291.744 199.204 295.494L171.501 264.501C170.904 263.832 170.066 263.429 169.172 263.38C168.277 263.331 167.4 263.64 166.733 264.239C166.067 264.839 165.664 265.679 165.615 266.576C165.567 267.473 165.875 268.353 166.472 269.022L193.423 299.168C185.629 304.072 179.242 307.911 174.472 310.705C172.483 311.873 170.178 312.382 167.885 312.158C165.592 311.935 163.427 310.991 161.7 309.461L161.26 309.074L169.171 303.1C169.548 302.815 169.861 302.454 170.09 302.04C170.32 301.627 170.46 301.17 170.502 300.698C170.545 300.227 170.488 299.752 170.336 299.304C170.184 298.856 169.94 298.445 169.62 298.097L140.197 266.128C139.896 265.801 139.534 265.537 139.131 265.35C138.729 265.164 138.294 265.059 137.85 265.041C136.956 265.005 136.083 265.328 135.425 265.937C134.767 266.546 134.378 267.393 134.342 268.291C134.306 269.188 134.628 270.063 135.235 270.723L143.532 279.74C137.597 285.586 131.989 291.756 126.731 298.222L110.661 285.62C118.668 275.386 131.774 262.034 131.912 261.893C138.665 255.059 138.863 254.713 138.863 253.097C138.863 251.501 138.863 250.968 116.219 224.718C115.921 224.372 115.556 224.091 115.146 223.891C114.736 223.69 114.29 223.575 113.835 223.552C113.38 223.527 112.924 223.596 112.496 223.755C112.067 223.913 111.676 224.158 111.346 224.474L106.279 229.286L89.2709 210.811C88.6758 210.165 87.8533 209.776 86.9775 209.727C86.1017 209.679 85.2414 209.974 84.5786 210.55C78.8555 215.726 73.5342 221.332 68.661 227.32L15.0146 179.95C14.34 179.375 13.4674 179.089 12.5846 179.153C11.7017 179.217 10.8793 179.627 10.2944 180.293C9.70951 180.959 9.40886 181.83 9.45719 182.716C9.50553 183.603 9.89899 184.435 10.5529 185.033L64.4703 232.641C62.4897 235.26 60.4938 238.06 58.547 241.036C57.1099 243.26 56.5518 245.942 56.982 248.557C57.4121 251.172 58.7996 253.533 60.8729 255.176L138.754 316.25C140.584 317.683 142.834 318.47 145.156 318.492C147.478 318.513 149.742 317.766 151.599 316.367L155.747 313.234L157.233 314.545C160.025 317.017 163.523 318.542 167.229 318.902C170.935 319.263 174.66 318.441 177.873 316.554C193.281 307.527 225.389 287.711 267.327 256.407C269.881 254.503 271.615 251.694 272.175 248.551C272.735 245.409 272.079 242.171 270.34 239.498C280.196 230.661 288.453 220.181 294.747 208.52L317.224 191.706C317.929 191.165 318.394 190.366 318.516 189.484C318.639 188.602 318.41 187.707 317.879 186.993C317.348 186.278 316.559 185.803 315.681 185.668C314.803 185.534 313.908 185.752 313.189 186.275L313.198 186.272ZM113.421 231.83C120.721 240.321 128.186 249.14 131.2 252.925C130.379 253.796 129.101 255.121 127.11 257.133H127.104C126.532 257.714 113.575 270.919 105.343 281.445L84.7976 265.336C92.7352 253.678 107.333 237.77 108.51 236.492L113.421 231.83ZM64.1915 244.751C70.6626 235.006 78.1763 226 86.5987 217.893L101.528 234.113C96.9886 239.136 86.2302 251.305 79.4647 261.155L65.0356 249.839C64.2881 249.249 63.7871 248.4 63.631 247.459C63.4749 246.518 63.6747 245.552 64.1915 244.751ZM147.542 310.956C146.874 311.46 146.059 311.728 145.223 311.721C144.387 311.713 143.577 311.43 142.918 310.914L132.047 302.389C137.084 296.215 142.447 290.317 148.114 284.719L162.124 299.939L147.542 310.956Z" fill="#474759"/>
<defs>
<linearGradient id="paint0_linear_101_545" x1="56.7294" y1="216.665" x2="204.957" y2="178.748" gradientUnits="userSpaceOnUse">
<stop stop-color="#F29C9C"/>
<stop offset="1" stop-color="#FCD0BE"/>
</linearGradient>
<linearGradient id="paint1_linear_101_545" x1="167.137" y1="-17.9929" x2="167.137" y2="53.5636" gradientUnits="userSpaceOnUse">
<stop stop-color="#FF93BA"/>
<stop offset="1" stop-color="#FF668A"/>
</linearGradient>
<linearGradient id="paint2_linear_101_545" x1="430.802" y1="461.327" x2="98.5073" y2="158.5" gradientUnits="userSpaceOnUse">
<stop stop-color="#F29C9C"/>
<stop offset="1" stop-color="#FCD0BE"/>
</linearGradient>
<linearGradient id="paint3_linear_101_545" x1="47.2857" y1="179.748" x2="195.513" y2="141.833" gradientUnits="userSpaceOnUse">
<stop stop-color="#F29C9C"/>
<stop offset="1" stop-color="#FCD0BE"/>
</linearGradient>
<linearGradient id="paint4_linear_101_545" x1="182.069" y1="177.88" x2="98.8787" y2="292.04" gradientUnits="userSpaceOnUse">
<stop stop-color="#F29C9C"/>
<stop offset="1" stop-color="#FCD0BE"/>
</linearGradient>
</defs>
</svg>
