<svg width="437" height="437" viewBox="0 0 437 437" fill="none" xmlns="http://www.w3.org/2000/svg">
<path d="M402.949 225.561L331.518 213.803L309.861 161.203C305.468 150.55 295.079 143.585 283.556 143.585H169.914C162.733 143.585 155.632 144.113 148.647 145.14C119.769 149.376 92.9259 162.162 71.5028 181.629L35.9437 229.337C26.3281 247.533 19.5879 266.52 19.5879 283.991V340.807H44.4644C44.4644 332.6 46.5085 324.872 50.1086 318.092H135.881C136.126 318.552 136.36 319.022 136.595 319.491C139.745 325.928 141.525 333.157 141.525 340.807H284.533C284.533 333.157 286.304 325.928 289.463 319.491C297.348 303.38 313.91 292.277 333.063 292.277C359.867 292.277 381.593 314.013 381.593 340.807H419.284V244.812C419.285 235.274 412.369 227.126 402.949 225.561Z" fill="#E6E6E6"/>
<path d="M402.949 225.561L331.519 213.803L309.861 161.203C305.469 150.55 295.08 143.585 283.556 143.585H258.211H246.875C258.398 143.585 268.787 150.55 273.179 161.203L294.837 213.803L366.268 225.561C375.688 227.126 382.604 235.274 382.604 244.812V253.039V290.212V317.065V340.807H419.286V317.065V290.212V253.039V244.812C419.285 235.274 412.369 227.126 402.949 225.561Z" fill="#CCCCCC"/>
<path d="M67.8877 317.065V283.99C67.8877 275.254 69.5733 266.139 72.4599 256.935C76.8299 243.001 83.7493 229.999 92.4765 218.29L107.644 197.941C123.357 176.858 144.83 160.62 169.631 151.885C178.446 148.781 187.59 146.511 196.946 145.138C203.931 144.111 211.033 143.583 218.213 143.583H169.913C162.732 143.583 155.631 144.111 148.646 145.138C119.768 149.374 92.9254 162.16 71.5023 181.627L35.9433 229.335C26.3276 247.531 19.5874 266.518 19.5874 283.989V317.064V340.806H44.4639C44.4639 332.598 46.508 324.871 50.1081 318.091H67.8877V317.065Z" fill="#F2F2F2"/>
<path d="M419.285 253.039V290.212H400.699C395.573 290.212 390.917 288.129 387.561 284.774C384.196 281.408 382.112 276.762 382.112 271.626C382.112 261.364 390.437 253.04 400.698 253.04H419.285V253.039Z" fill="#FED159"/>
<path d="M312.228 229.336H114.341V218.272C114.341 195.42 129.386 176.08 150.115 169.624C154.487 168.264 159.105 167.482 163.898 167.364C164.358 167.344 164.818 167.335 165.278 167.335H274.438C281.863 167.335 288.544 171.815 291.371 178.673L312.228 229.336Z" fill="#72C5D5"/>
<path d="M80.9231 204.509C85.8043 216.345 77.0985 229.337 64.3026 229.337H35.9438C39.2307 223.125 42.8505 217.001 46.646 211.063C53.6892 200.067 62.0724 190.197 71.5029 181.628L80.9231 204.509Z" fill="#72C5D5"/>
<path d="M312.041 98.0381L308.364 103.272C301.634 112.869 290.648 118.581 278.928 118.581H258.209V98.0381H312.041Z" fill="#FED159"/>
<path d="M258.205 98.041H148.643V118.584H258.205V98.041Z" fill="#FED159"/>
<path d="M148.647 98.0381V118.581H126.519C114.8 118.581 103.814 112.869 97.0844 103.272L93.416 98.0381H148.647Z" fill="#FED159"/>
<path d="M312.041 98.0378H258.209V58.6738H272.677C283.545 58.6738 293.387 63.0762 300.508 70.1971C307.63 77.3188 312.041 87.1598 312.041 98.0378Z" fill="#EE4948"/>
<path d="M258.205 58.6738H148.643V98.0378H258.205V58.6738Z" fill="#EE4948"/>
<path d="M93.415 98.0378C93.415 76.292 111.043 58.6738 132.779 58.6738H148.646V98.0378H93.415Z" fill="#EE4948"/>
<path d="M333.064 318.297C345.497 318.297 355.583 328.373 355.583 340.806C355.583 353.249 345.497 363.325 333.064 363.325C320.63 363.325 310.544 353.249 310.544 340.806C310.544 328.373 320.63 318.297 333.064 318.297Z" fill="#CCCCCC"/>
<path d="M92.9951 318.297C105.428 318.297 115.504 328.373 115.504 340.806C115.504 353.249 105.428 363.325 92.9951 363.325C80.5518 363.325 70.4761 353.249 70.4761 340.806C70.4761 328.373 80.5518 318.297 92.9951 318.297Z" fill="#CCCCCC"/>
<path d="M333.064 292.275C359.867 292.275 381.593 314.012 381.593 340.805C381.593 367.609 359.866 389.345 333.064 389.345C306.261 389.345 284.534 367.609 284.534 340.805C284.534 314.012 306.26 292.275 333.064 292.275ZM355.583 340.806C355.583 328.373 345.497 318.297 333.064 318.297C320.63 318.297 310.544 328.373 310.544 340.806C310.544 353.249 320.63 363.325 333.064 363.325C345.497 363.325 355.583 353.249 355.583 340.806Z" fill="#666666"/>
<path d="M289.464 319.491C286.304 325.928 284.533 333.157 284.533 340.807H141.525C141.525 333.157 139.745 325.928 136.595 319.491H289.464Z" fill="#CCCCCC"/>
<path d="M92.9952 318.297C80.5518 318.297 70.4761 328.372 70.4761 340.805C70.4761 353.249 80.5518 363.325 92.9952 363.325C105.428 363.325 115.504 353.249 115.504 340.805C115.504 328.373 105.428 318.297 92.9952 318.297ZM50.1088 318.092H135.881C139.481 324.871 141.525 332.599 141.525 340.806C141.525 367.61 119.798 389.346 92.9952 389.346C66.1923 389.346 44.4653 367.61 44.4653 340.806C44.4645 332.599 46.5095 324.87 50.1088 318.092Z" fill="#666666"/>
<path d="M286.656 172.011L265.35 229.336H196.345L219.382 167.335H274.437C279.045 167.336 283.369 169.057 286.656 172.011Z" fill="#A2E4ED"/>
<path d="M175.147 172.012L153.841 229.336H114.34V218.272C114.34 195.42 129.385 176.08 150.114 169.624C154.487 168.265 159.104 167.482 163.897 167.364C168.143 167.58 172.095 169.263 175.147 172.012Z" fill="#A2E4ED"/>
<path d="M298.199 176.238C294.224 166.593 284.915 160.359 274.484 160.359H165.322C159.422 160.359 153.588 161.241 147.978 162.981C123.497 170.607 107.049 192.971 107.049 218.634V229.698C107.049 233.749 110.334 237.035 114.386 237.035H312.273C314.721 237.035 317.007 235.814 318.369 233.78C319.732 231.746 319.989 229.168 319.058 226.905L298.199 176.238ZM121.723 218.632C121.723 202.985 129.894 188.978 142.823 181.242V195.282C142.823 199.333 146.107 202.618 150.159 202.618C154.212 202.618 157.496 199.333 157.496 195.282V175.736C160.068 175.272 162.685 175.032 165.322 175.032H218.147V222.359H157.496V217.781C157.496 213.729 154.212 210.444 150.159 210.444C146.107 210.444 142.823 213.729 142.823 217.781V222.359H121.723V218.632ZM232.82 222.359V175.032H274.485C278.948 175.032 282.933 177.701 284.633 181.826L301.32 222.359H232.82Z" fill="black"/>
<path d="M349.005 323.621C345.492 325.638 344.278 330.122 346.295 333.636C347.601 335.914 348.292 338.518 348.292 341.168C348.292 349.54 341.482 356.35 333.11 356.35C324.738 356.35 317.927 349.538 317.927 341.167C317.927 332.801 324.738 325.995 333.11 325.995C337.162 325.995 340.446 322.71 340.446 318.658C340.446 314.606 337.162 311.321 333.11 311.321C316.647 311.321 303.253 324.71 303.253 341.167C303.253 357.629 316.646 371.023 333.11 371.023C349.571 371.023 362.965 357.629 362.965 341.167C362.965 335.959 361.601 330.829 359.021 326.332C357.002 322.818 352.519 321.604 349.005 323.621Z" fill="black"/>
<path d="M429.661 310.088H426.667V245.172C426.667 231.986 417.216 220.846 404.186 218.681L336.792 207.587L316.689 158.765C311.138 145.304 298.151 136.607 283.601 136.607H265.592V126.277H278.975C293.072 126.277 306.321 119.387 314.413 107.85L318.091 102.616C318.959 101.38 319.424 99.9069 319.424 98.397C319.424 85.9204 314.564 74.1906 305.742 65.3678C296.925 56.551 285.199 51.6962 272.724 51.6962H265.593V47.2938C265.593 43.2422 262.308 39.957 258.256 39.957C254.203 39.957 250.919 43.2422 250.919 47.2938V51.6962H156.03V47.2938C156.03 43.2422 152.745 39.957 148.693 39.957C144.64 39.957 141.356 43.2422 141.356 47.2938V51.6962H132.826C107.075 51.6962 86.1254 72.6466 86.1254 98.397C86.1254 99.9043 86.5897 101.374 87.4534 102.608L91.1227 107.844C99.2174 119.386 112.466 126.278 126.564 126.278H141.354V139.303C113.462 144.571 87.7334 157.367 66.6141 176.558C56.6075 185.65 47.8257 196.048 40.5085 207.472C36.4211 213.865 32.7185 220.189 29.5016 226.269C18.0851 247.872 12.2957 267.413 12.2957 284.351V310.089H7.33679C3.28431 310.089 0 313.374 0 317.425C0 321.477 3.28431 324.762 7.33679 324.762H12.2966V341.167C12.2966 345.219 15.5809 348.504 19.6333 348.504H37.6698C41.2758 375.858 64.7227 397.044 93.0405 397.044C121.358 397.044 144.806 375.858 148.411 348.504H277.739C281.345 375.858 304.792 397.044 333.11 397.044C361.427 397.044 384.874 375.858 388.479 348.504H419.331C423.384 348.504 426.668 345.219 426.668 341.167V324.761H429.662C433.715 324.761 436.999 321.476 436.999 317.424C437 313.373 433.713 310.088 429.661 310.088ZM400.744 283.235C397.739 283.235 394.917 282.068 392.793 279.944C390.665 277.816 389.493 274.99 389.493 271.985C389.493 265.782 394.54 260.736 400.743 260.736H411.992V283.235H400.744ZM265.591 111.603V105.734H296.324C291.398 109.488 285.317 111.603 278.973 111.603H265.591ZM272.722 66.3698C281.277 66.3698 289.319 69.6985 295.365 75.744C299.647 80.0243 302.559 85.3076 303.902 91.0594H265.59V66.369H272.721V66.3698H272.722ZM250.917 66.3698V91.0602H235.128C231.076 91.0602 227.791 94.3454 227.791 98.397C227.791 102.449 231.076 105.734 235.128 105.734H250.917V111.603H156.029V105.734H213.608C217.66 105.734 220.944 102.449 220.944 98.397C220.944 94.3454 217.66 91.0602 213.608 91.0602H156.029V66.3698H250.917ZM132.824 66.3698H141.354V91.0602H101.653C104.98 76.9261 117.69 66.3698 132.824 66.3698ZM126.564 111.603C120.22 111.603 114.138 109.488 109.213 105.734H141.354V111.603H126.564ZM250.917 126.277V136.607H169.958C165.322 136.607 160.664 136.845 156.028 137.268V126.277H250.917ZM68.916 194.865L74.1864 207.666C75.5631 211.004 75.2013 214.637 73.1938 217.636C71.1838 220.638 67.9601 222.36 64.3488 222.36H48.5666C49.9475 220.05 51.372 217.725 52.87 215.38C57.5711 208.041 62.9534 201.179 68.916 194.865ZM93.0397 382.37C70.3251 382.37 51.8457 363.886 51.8457 341.167C51.8457 335.813 52.8426 330.657 54.8151 325.789H67.4625C64.7491 330.283 63.1838 335.545 63.1838 341.167C63.1838 357.629 76.5771 371.022 93.0397 371.022C109.496 371.022 122.885 357.629 122.885 341.167C122.885 335.545 121.321 330.283 118.608 325.789H131.265C133.238 330.657 134.234 335.813 134.234 341.167C134.234 363.885 115.754 382.37 93.0397 382.37ZM108.213 341.167C108.213 349.539 101.406 356.349 93.0405 356.349C84.6684 356.349 77.8582 349.539 77.8582 341.167C77.8582 332.801 84.6684 325.995 93.0405 325.995C101.406 325.994 108.213 332.801 108.213 341.167ZM333.11 382.37C310.395 382.37 291.917 363.886 291.917 341.167C291.917 318.453 310.397 299.974 333.11 299.974C355.822 299.974 374.302 318.453 374.302 341.167C374.302 363.885 355.822 382.37 333.11 382.37ZM411.994 333.83H388.479C384.873 306.482 361.426 285.3 333.11 285.3C304.792 285.3 281.345 306.482 277.74 333.83H148.407C147.534 327.26 145.511 320.859 142.405 315.012C141.132 312.614 138.639 311.116 135.925 311.116H50.1541C47.4408 311.116 44.9477 312.615 43.6742 315.012C40.5683 320.86 38.5463 327.26 37.6723 333.83H26.9693V324.761H27.9867C32.0391 324.761 35.3235 321.476 35.3235 317.424C35.3235 313.373 32.0391 310.088 27.9867 310.088H26.9693V291.687H36.2333C40.2858 291.687 43.5701 288.402 43.5701 284.35C43.5701 280.298 40.2858 277.013 36.2333 277.013H27.4012C28.7087 265.17 33.0796 251.774 40.4667 237.033H64.348C72.8123 237.033 80.6774 232.834 85.3871 225.798C90.095 218.765 90.9784 209.896 87.753 202.076L80.3309 184.049C100.14 167.32 124.037 156.532 149.758 152.759C156.425 151.779 163.221 151.281 169.957 151.281H283.599C292.182 151.281 299.846 156.415 303.12 164.356L324.778 216.955C325.746 219.306 327.862 220.988 330.372 221.401L401.791 233.157C407.703 234.14 411.994 239.192 411.994 245.172V246.062H400.744C386.451 246.062 374.822 257.691 374.822 271.985C374.822 278.91 377.52 285.421 382.42 290.32C387.313 295.214 393.821 297.909 400.744 297.909H411.994V310.088H399.717C395.664 310.088 392.38 313.373 392.38 317.424C392.38 321.476 395.664 324.761 399.717 324.761H411.994V333.828V333.83Z" fill="black"/>
</svg>
