<svg width="276" height="325" viewBox="0 0 276 325" fill="none" xmlns="http://www.w3.org/2000/svg">
<path d="M207.609 80.25C224.696 80.25 238.547 66.4408 238.547 49.4062C238.547 32.3717 224.696 18.5625 207.609 18.5625C190.523 18.5625 176.672 32.3717 176.672 49.4062C176.672 66.4408 190.523 80.25 207.609 80.25Z" stroke="#37474F" stroke-miterlimit="10" stroke-linecap="round" stroke-linejoin="round"/>
<path d="M229.266 31.4141L231.328 29.3578C225.656 22.675 217.406 18.5625 207.609 18.5625C190.594 18.5625 176.672 32.4422 176.672 49.4062H179.766C197.812 49.4062 215.344 43.2375 229.266 31.4141Z" fill="#FFB300" stroke="#37474F" stroke-miterlimit="10" stroke-linecap="round" stroke-linejoin="round"/>
<path d="M207.609 80.2502C201.937 80.2502 196.781 78.708 192.141 76.1377V85.3908L207.609 108.524L223.078 85.3908V76.1377C218.438 78.708 213.281 80.2502 207.609 80.2502Z" stroke="#37474F" stroke-miterlimit="10" stroke-linecap="round" stroke-linejoin="round"/>
<path d="M259.172 126.516V119.319C259.172 109.552 253.5 100.813 244.734 96.1859L223.078 85.3906" stroke="#37474F" stroke-miterlimit="10" stroke-linecap="round" stroke-linejoin="round"/>
<path d="M156.047 126.516V119.319C156.047 109.552 161.719 100.813 170.484 96.1859L192.141 85.3906" stroke="#37474F" stroke-miterlimit="10" stroke-linecap="round" stroke-linejoin="round"/>
<path d="M192.141 85.3906L189.562 108.523H225.656L223.078 85.3906L207.609 108.523L192.141 85.3906Z" stroke="#37474F" stroke-miterlimit="10" stroke-linecap="round" stroke-linejoin="round"/>
<path d="M207.609 108.523V126.516" stroke="#37474F" stroke-miterlimit="10" stroke-linecap="round" stroke-linejoin="round"/>
<path d="M261.75 144.508H153.469C146.25 144.508 140.578 138.853 140.578 131.656V13.4219C140.578 6.225 146.25 0.570312 153.469 0.570312H261.75C268.969 0.570312 274.641 6.225 274.641 13.4219V131.656C274.641 138.853 268.969 144.508 261.75 144.508Z" stroke="#37474F" stroke-miterlimit="10" stroke-linecap="round" stroke-linejoin="round"/>
<path d="M148.312 255.545C145.734 258.115 143.156 260.172 140.578 262.228L159.656 281.248L174.094 266.854L155.016 247.834C152.953 250.404 150.891 252.975 148.312 255.545Z" stroke="#37474F" stroke-miterlimit="10" stroke-linecap="round" stroke-linejoin="round"/>
<path d="M148.312 168.669C124.078 144.508 84.8906 144.508 60.6562 168.669C36.4219 192.829 36.4219 231.898 60.6562 256.059C84.8906 280.22 124.078 280.22 148.312 256.059C172.547 231.384 172.547 192.315 148.312 168.669ZM137.484 244.75C119.437 262.742 90.0469 262.742 72 244.75C53.9531 226.758 53.9531 197.456 72 179.464C90.0469 161.472 119.437 161.472 137.484 179.464C155.531 197.456 155.531 226.758 137.484 244.75Z" fill="#90CAF9" stroke="#37474F" stroke-miterlimit="10" stroke-linecap="round" stroke-linejoin="round"/>
<path d="M172.031 268.397L161.203 279.192C159.141 281.248 159.141 284.333 161.203 286.389L197.812 322.887C199.875 324.944 202.969 324.944 205.031 322.887L215.859 312.092C217.922 310.036 217.922 306.951 215.859 304.895L179.25 268.397C177.187 266.34 174.094 266.34 172.031 268.397Z" stroke="#37474F" stroke-miterlimit="10" stroke-linecap="round" stroke-linejoin="round"/>
<path d="M40.0312 98.2422H1.35938L52.9219 46.8359V85.3906C52.9219 92.5875 47.25 98.2422 40.0312 98.2422Z" stroke="#37474F" stroke-miterlimit="10" stroke-linecap="round" stroke-linejoin="round"/>
<path d="M176.672 211.85H191.625" stroke="#37474F" stroke-miterlimit="10" stroke-linecap="round" stroke-linejoin="round"/>
<path d="M68.3906 211.85H140.578" stroke="#37474F" stroke-miterlimit="10" stroke-linecap="round" stroke-linejoin="round"/>
<path d="M17.3438 211.85H32.2969" stroke="#37474F" stroke-miterlimit="10" stroke-linecap="round" stroke-linejoin="round"/>
<path d="M207.609 282.277V154.789" stroke="#37474F" stroke-miterlimit="10" stroke-linecap="round" stroke-linejoin="round"/>
<path d="M130.266 46.8359H52.9219L1.35938 98.2422V280.734C1.35938 287.931 7.03125 293.586 14.25 293.586H153.469" stroke="#37474F" stroke-miterlimit="10" stroke-linecap="round" stroke-linejoin="round"/>
</svg>
