<svg width="1987" height="490" viewBox="0 0 1987 490" fill="none" xmlns="http://www.w3.org/2000/svg">
<path d="M631.557 221.24H683.137C698.016 221.24 716.359 221.936 731.594 237.154C747.508 253.425 749.24 274.537 749.24 292.54V299.469C749.24 312.971 747.848 333.047 734.362 348.621C720.163 364.892 701.48 367.66 686.602 367.66H666.187V463.537H631.573V221.24H631.557ZM666.17 336.495H684.854C691.427 336.495 700.768 335.459 708.037 327.493C715.307 319.528 714.61 311.223 714.61 302.577V286.663C714.61 278.357 714.95 266.587 705.269 258.622C697.303 252.049 687.622 252.389 678.264 252.389H666.154V336.495H666.17Z" fill="#2C6AA4"/>
<path d="M944.443 221.24V463.537H909.829V221.24H944.443Z" fill="#2C6AA4"/>
<path d="M1001.67 238.304L985.966 255.384L1001.67 238.304Z" fill="#2C6AA4"/>
<path d="M1101.92 288.039V395.005C1101.92 411.615 1100.19 429.279 1086.33 444.513C1071.09 461.124 1051.02 463.536 1037.53 463.536H997.445V476.423L965.762 447.864L997.445 416.197V429.57H1020.21C1020.35 429.57 1020.45 429.57 1020.56 429.538V429.619H1036.16C1043.41 429.619 1052.41 428.582 1059.34 421.313C1066.61 413.364 1067.3 400.898 1067.3 392.932V285.643C1067.3 278.713 1066.27 270.052 1060.72 263.139C1054.14 255.189 1046.87 255.19 1038.23 255.19H1020.56V255.448C1020.42 255.416 1020.27 255.4 1020.11 255.4H985.95L1002.42 237.721L985.95 221.256H1032.69C1047.23 221.256 1068 221.952 1083.22 235.794C1100.88 252.049 1101.9 277.661 1101.9 288.055L1101.92 288.039Z" fill="#2C6AA4"/>
<path d="M1176.68 221.24V405.043C1176.68 421.654 1184.65 433.084 1199.87 433.084C1215.09 433.084 1223.05 421.654 1223.05 405.043V221.24H1257.66V399.846C1257.66 453.143 1225.82 467.001 1199.87 467.001C1173.91 467.001 1142.07 453.159 1142.07 399.846V221.24H1176.68Z" fill="#2C6AA4"/>
<path d="M1477.46 361.427V463.537H1442.85V360.391L1391.96 221.24H1430.04L1460.15 317.456H1462.22L1491.64 221.24H1528.33L1477.44 361.427H1477.46Z" fill="#2C6AA4"/>
<path d="M1635.97 444.838C1631.13 453.483 1624.54 458.34 1619.36 461.109C1609.32 466.645 1598.25 466.985 1592.35 466.985C1579.89 466.985 1565.35 463.877 1553.94 449.679C1542.86 435.836 1541.47 418.529 1541.47 407.456V284.931C1541.47 270.393 1542.17 255.514 1552.88 240.619C1566.73 221.24 1588.53 217.776 1601.68 217.776C1619.68 217.776 1634.9 223.653 1644.6 233.35C1653.94 242.692 1662.25 258.266 1662.25 280.77V290.468H1627.63V278.358C1627.63 272.481 1626.94 264.856 1620.7 258.623C1617.24 255.158 1611.36 251.693 1602.02 251.693C1592.68 251.693 1586.79 255.498 1582.64 260.339C1576.07 268.304 1576.07 277.306 1576.07 285.951V399.474C1576.07 406.743 1576.41 417.121 1581.94 424.39C1586.11 429.587 1593.02 433.052 1601.32 433.052C1608.59 433.052 1616.9 429.247 1621.4 423.354C1627.63 415.389 1627.63 403.618 1627.63 394.973V362.432H1598.22V331.282H1662.25V463.505H1644.94L1635.94 444.822" fill="#2C6AA4"/>
<path d="M1737.02 221.24V405.043C1737.02 421.654 1744.99 433.084 1760.21 433.084C1775.43 433.084 1783.39 421.654 1783.39 405.043V221.24H1818.01V399.846C1818.01 453.143 1786.16 467.001 1760.21 467.001C1734.26 467.001 1702.41 453.159 1702.41 399.846V221.24H1737.02Z" fill="#2C6AA4"/>
<path d="M1894.17 221.24L1951.97 373.537V221.24H1986.58V463.537H1951.97L1894.17 311.239V463.537H1859.56V221.24H1894.17Z" fill="#2C6AA4"/>
<path d="M803.053 222.877L749.238 465.368H784.743L816.928 292.801L851.331 465.368H885.735L832.47 222.877H803.053Z" fill="#1783C1"/>
<path d="M1320.62 222.877L1266.79 465.368H1302.31L1334.5 292.801L1368.9 465.368H1403.3L1350.04 222.877H1320.62Z" fill="#1783C1"/>
<path d="M53.5937 294.766C53.5937 289.689 51.5771 284.821 47.9875 281.231C44.3979 277.642 39.5294 275.625 34.453 275.625H30.6249L29.6296 275.089C25.2687 282.266 22.9645 290.503 22.9687 298.9V313.906H34.453C36.9689 313.914 39.4615 313.425 41.7874 312.466C44.1133 311.507 46.2265 310.097 48.0055 308.318C49.7845 306.539 51.1941 304.426 52.1531 302.1C53.1122 299.774 53.6017 297.282 53.5937 294.766Z" fill="#FF942C"/>
<path d="M421.094 275.625C421.094 275.625 428.75 306.25 444.062 313.906C455.581 318.76 467.931 321.334 480.43 321.486C477.012 308.351 469.332 296.722 458.594 288.423C447.855 280.123 434.666 275.622 421.094 275.625Z" fill="#FF942C"/>
<path d="M284.43 186.047L329.219 275.625H367.5L316.969 208.25C308.873 197.457 297.431 189.65 284.43 186.047Z" fill="#ABF5FF"/>
<path d="M214.375 206.719V275.625H298.594L267.969 206.719H214.375Z" fill="#89F2FF"/>
<path d="M114.844 206.719L91.875 275.625H191.406V206.719H114.844Z" fill="#89F2FF"/>
<path d="M137.812 451.719C125.127 451.719 114.844 441.435 114.844 428.75C114.844 416.065 125.127 405.781 137.812 405.781C150.498 405.781 160.781 416.065 160.781 428.75C160.781 441.435 150.498 451.719 137.812 451.719Z" fill="#595751"/>
<path d="M382.812 451.719C370.127 451.719 359.844 441.435 359.844 428.75C359.844 416.065 370.127 405.781 382.812 405.781C395.498 405.781 405.781 416.065 405.781 428.75C405.781 441.435 395.498 451.719 382.812 451.719Z" fill="#595751"/>
<path d="M382.812 375.156C372.213 375.156 361.851 378.299 353.037 384.188C344.224 390.077 337.355 398.448 333.298 408.241C329.242 418.034 328.181 428.809 330.249 439.206C332.316 449.602 337.421 459.151 344.916 466.647C352.411 474.142 361.961 479.246 372.357 481.314C382.753 483.382 393.529 482.321 403.322 478.264C413.115 474.208 421.485 467.339 427.374 458.525C433.263 449.712 436.406 439.35 436.406 428.75C436.411 421.711 435.028 414.739 432.337 408.235C429.645 401.73 425.698 395.82 420.72 390.842C415.743 385.865 409.832 381.917 403.328 379.226C396.823 376.534 389.852 375.151 382.812 375.156ZM359.844 428.75C359.844 424.207 361.191 419.766 363.715 415.989C366.239 412.212 369.826 409.268 374.023 407.53C378.22 405.791 382.838 405.336 387.293 406.223C391.749 407.109 395.842 409.296 399.054 412.509C402.266 415.721 404.454 419.814 405.34 424.269C406.226 428.725 405.771 433.343 404.033 437.54C402.294 441.737 399.35 445.324 395.573 447.848C391.796 450.372 387.355 451.719 382.812 451.719C376.721 451.719 370.879 449.299 366.571 444.991C362.264 440.684 359.844 434.842 359.844 428.75Z" fill="#75726A"/>
<path d="M137.812 375.156C127.213 375.156 116.851 378.299 108.037 384.188C99.2239 390.077 92.3547 398.448 88.2983 408.241C84.242 418.034 83.1806 428.809 85.2485 439.206C87.3165 449.602 92.4208 459.151 99.916 466.647C107.411 474.142 116.961 479.246 127.357 481.314C137.753 483.382 148.529 482.321 158.322 478.264C168.115 474.208 176.485 467.339 182.374 458.525C188.263 449.712 191.406 439.35 191.406 428.75C191.411 421.711 190.028 414.739 187.337 408.235C184.645 401.73 180.698 395.82 175.72 390.842C170.743 385.865 164.832 381.917 158.328 379.226C151.823 376.534 144.852 375.151 137.812 375.156ZM114.844 428.75C114.844 424.207 116.191 419.766 118.715 415.989C121.239 412.212 124.826 409.268 129.023 407.53C133.22 405.791 137.838 405.336 142.293 406.223C146.749 407.109 150.842 409.296 154.054 412.509C157.266 415.721 159.454 419.814 160.34 424.269C161.226 428.725 160.771 433.343 159.033 437.54C157.294 441.737 154.35 445.324 150.573 447.848C146.796 450.372 142.355 451.719 137.812 451.719C131.721 451.719 125.879 449.299 121.571 444.991C117.264 440.684 114.844 434.842 114.844 428.75Z" fill="#75726A"/>
<path d="M214.375 206.719H267.969L298.594 275.625H214.375V206.719ZM114.844 206.719H191.406V275.625H91.875L114.844 206.719ZM34.4531 275.625C39.5295 275.625 44.398 277.642 47.9876 281.231C51.5772 284.821 53.5938 289.689 53.5938 294.766C53.5938 299.842 51.5772 304.711 47.9876 308.3C44.398 311.89 39.5295 313.906 34.4531 313.906H22.9688V413.438C22.9809 417.495 24.598 421.383 27.4671 424.252C30.3361 427.121 34.2238 428.738 38.2812 428.75H68.9062C68.9062 386.488 99.7609 352.188 137.812 352.188C175.864 352.188 206.719 386.488 206.719 428.75H313.906C313.906 386.488 344.761 352.188 382.812 352.188C420.864 352.188 451.719 386.488 451.719 428.75H467.031C471.089 428.738 474.976 427.121 477.845 424.252C480.714 421.383 482.332 417.495 482.344 413.438V336.875C482.335 331.687 481.692 326.519 480.43 321.486C467.931 321.334 455.581 318.76 444.062 313.906C428.75 306.25 421.094 275.625 421.094 275.625H329.219L284.43 186.047C279.079 184.508 273.537 183.734 267.969 183.75H129.697C120.316 183.744 111.06 185.895 102.643 190.037C94.226 194.179 86.8744 200.201 81.1562 207.637L32.4625 270.878C31.4484 272.234 30.5029 273.639 29.6297 275.089L30.625 275.625H34.4531Z" fill="#0660B3"/>
<path d="M68.9062 428.75H84.2188C84.2188 414.536 89.8652 400.904 99.916 390.853C109.967 380.803 123.599 375.156 137.812 375.156C152.026 375.156 165.658 380.803 175.709 390.853C185.76 400.904 191.406 414.536 191.406 428.75H206.719C206.719 386.487 175.864 352.188 137.812 352.188C99.7609 352.188 68.9062 386.487 68.9062 428.75Z" fill="#6BAAE3"/>
<path d="M313.906 428.75H329.219C329.219 414.536 334.865 400.904 344.916 390.853C354.967 380.803 368.599 375.156 382.812 375.156C397.026 375.156 410.658 380.803 420.709 390.853C430.76 400.904 436.406 414.536 436.406 428.75H451.719C451.719 386.487 420.864 352.188 382.812 352.188C344.761 352.188 313.906 386.487 313.906 428.75Z" fill="#6BAAE3"/>
<path d="M260.312 206.719L214.375 252.656V206.719H260.312Z" fill="#ABF5FF"/>
<path d="M267.969 206.719L279.744 233.225L237.344 275.625H214.375V252.656L260.313 206.719H267.969Z" fill="#89F2FF"/>
<path d="M298.594 275.625H237.344L279.744 233.225L298.594 275.625Z" fill="#6BDFED"/>
<path d="M191.406 275.625H130.156L191.406 214.375V275.625Z" fill="#6BDFED"/>
<path d="M95.7031 264.141L153.125 206.719H191.406V214.375L130.156 275.625H91.875L95.7031 264.141Z" fill="#89F2FF"/>
<path d="M114.844 206.719H153.125L95.7031 264.141L114.844 206.719Z" fill="#ABF5FF"/>
<path d="M191.406 275.625V206.719H115.38C112.648 200.474 110.557 193.969 109.14 187.302C115.739 184.953 122.692 183.752 129.697 183.75H267.969C273.537 183.734 279.079 184.508 284.43 186.047L329.219 275.625H421.094C421.094 275.625 428.75 306.25 444.062 313.906C455.581 318.76 467.931 321.334 480.43 321.486C481.692 326.519 482.335 331.686 482.344 336.875V352.187C356.712 352.187 245.689 321.991 177.625 275.625H191.406ZM214.375 275.625H298.594L267.969 206.719H214.375V275.625Z" fill="#1E7BD0"/>
<path d="M382.812 398.125C388.87 398.125 394.791 399.921 399.827 403.286C404.863 406.651 408.788 411.434 411.106 417.03C413.424 422.626 414.031 428.784 412.849 434.725C411.667 440.665 408.751 446.122 404.468 450.405C400.185 454.688 394.728 457.605 388.787 458.787C382.846 459.968 376.689 459.362 371.093 457.044C365.497 454.726 360.714 450.801 357.349 445.764C353.984 440.728 352.187 434.807 352.187 428.75C352.187 420.628 355.414 412.838 361.157 407.095C366.901 401.352 374.69 398.125 382.812 398.125ZM382.812 451.719C387.355 451.719 391.796 450.372 395.573 447.848C399.35 445.324 402.294 441.737 404.033 437.54C405.771 433.343 406.226 428.725 405.34 424.269C404.454 419.814 402.266 415.721 399.054 412.509C395.842 409.296 391.749 407.109 387.293 406.223C382.838 405.336 378.22 405.791 374.023 407.53C369.826 409.268 366.238 412.212 363.715 415.989C361.191 419.766 359.844 424.207 359.844 428.75C359.844 434.842 362.264 440.684 366.571 444.991C370.879 449.299 376.721 451.719 382.812 451.719Z" fill="#63615A"/>
<path d="M137.812 398.125C143.87 398.125 149.791 399.921 154.827 403.286C159.863 406.651 163.788 411.434 166.106 417.03C168.424 422.626 169.031 428.784 167.849 434.725C166.667 440.665 163.751 446.122 159.468 450.405C155.185 454.688 149.728 457.605 143.787 458.787C137.846 459.968 131.689 459.362 126.093 457.044C120.497 454.726 115.714 450.801 112.349 445.764C108.984 440.728 107.187 434.807 107.187 428.75C107.187 420.628 110.414 412.838 116.157 407.095C121.901 401.352 129.69 398.125 137.812 398.125ZM137.812 451.719C142.355 451.719 146.796 450.372 150.573 447.848C154.35 445.324 157.294 441.737 159.033 437.54C160.771 433.343 161.226 428.725 160.34 424.269C159.454 419.814 157.266 415.721 154.054 412.509C150.842 409.296 146.749 407.109 142.293 406.223C137.838 405.336 133.22 405.791 129.023 407.53C124.826 409.268 121.239 412.212 118.715 415.989C116.191 419.766 114.844 424.207 114.844 428.75C114.844 434.842 117.264 440.684 121.571 444.991C125.879 449.299 131.721 451.719 137.812 451.719Z" fill="#63615A"/>
<path d="M214.375 199.063H267.969C269.45 199.062 270.9 199.492 272.142 200.299C273.384 201.106 274.365 202.257 274.967 203.61L305.592 272.517C306.109 273.682 306.328 274.959 306.227 276.231C306.126 277.502 305.709 278.728 305.014 279.798C304.319 280.867 303.367 281.746 302.246 282.355C301.125 282.963 299.869 283.281 298.594 283.281H214.375C212.344 283.281 210.397 282.475 208.961 281.039C207.525 279.603 206.719 277.656 206.719 275.625V206.719C206.719 204.688 207.525 202.741 208.961 201.305C210.397 199.869 212.344 199.063 214.375 199.063ZM214.375 275.625H298.594L267.969 206.719H214.375V275.625Z" fill="#8F8B81"/>
<path d="M84.6169 273.206L107.586 204.299C108.093 202.775 109.067 201.45 110.37 200.51C111.672 199.57 113.238 199.064 114.844 199.062H191.406C193.437 199.062 195.384 199.869 196.82 201.305C198.256 202.741 199.062 204.688 199.062 206.719V275.625C199.062 277.656 198.256 279.603 196.82 281.039C195.384 282.475 193.437 283.281 191.406 283.281H91.875C90.6625 283.28 89.4675 282.991 88.3885 282.438C87.3095 281.885 86.3773 281.084 85.6686 280.1C84.9599 279.116 84.495 277.978 84.3121 276.78C84.1293 275.581 84.2337 274.356 84.6169 273.206ZM191.406 275.625V206.719H114.844L91.875 275.625H191.406Z" fill="#8F8B81"/>
<path d="M120.196 239.725C115.288 234.813 116.852 225.293 123.69 218.461C130.527 211.628 140.049 210.07 144.956 214.981C149.864 219.893 148.3 229.413 141.463 236.246C134.625 243.078 125.104 244.636 120.196 239.725Z" fill="#F6FAFD"/>
<path d="M149.341 256.628C146.875 254.161 147.66 249.379 151.093 245.948C154.527 242.516 159.31 241.735 161.775 244.203C164.241 246.67 163.457 251.452 160.023 254.884C156.589 258.315 151.807 259.096 149.341 256.628Z" fill="#F6FAFD"/>
</svg>
