<svg width="183" height="45" viewBox="0 0 183 45" fill="none" xmlns="http://www.w3.org/2000/svg">
<path d="M58 20.3179H62.737C64.1034 20.3179 65.788 20.3818 67.1871 21.7794C68.6486 23.2737 68.8077 25.2125 68.8077 26.8658V27.5022C68.8077 28.7422 68.6798 30.5858 67.4413 32.0162C66.1374 33.5104 64.4216 33.7647 63.0552 33.7647H61.1803V42.5696H58.0015V20.3179H58ZM61.1788 30.9025H62.8946C63.4983 30.9025 64.3562 30.8074 65.0237 30.0759C65.6913 29.3444 65.6274 28.5816 65.6274 27.7877V26.3261C65.6274 25.5634 65.6586 24.4825 64.7695 23.7509C64.038 23.1473 63.1489 23.1785 62.2895 23.1785H61.1773V30.9025H61.1788Z" fill="#2C6AA4"/>
<path d="M86.7345 20.3179V42.5696H83.5557V20.3179H86.7345Z" fill="#2C6AA4"/>
<path d="M91.9901 21.8853L90.5479 23.4539L91.9901 21.8853Z" fill="#2C6AA4"/>
<path d="M101.197 26.4525V36.2759C101.197 37.8014 101.037 39.4235 99.7647 40.8226C98.3656 42.3481 96.522 42.5696 95.2835 42.5696H91.6021V43.7531L88.6924 41.1303L91.6021 38.2221V39.4502H93.6926C93.7059 39.4502 93.7149 39.4502 93.7253 39.4473V39.4547H95.1571C95.8232 39.4547 96.6498 39.3596 97.2862 38.692C97.9538 37.9619 98.0177 36.8171 98.0177 36.0856V26.2324C98.0177 25.5961 97.9226 24.8006 97.4126 24.1657C96.8089 23.4357 96.1414 23.4357 95.3474 23.4357H93.7253V23.4595C93.7119 23.4565 93.6985 23.455 93.6836 23.455H90.5464L92.0585 21.8314L90.5464 20.3193H94.8389C96.1741 20.3193 98.0817 20.3833 99.4793 21.6545C101.101 23.1473 101.195 25.4994 101.195 26.454L101.197 26.4525Z" fill="#2C6AA4"/>
<path d="M108.063 20.3179V37.1977C108.063 38.7232 108.794 39.7729 110.192 39.7729C111.589 39.7729 112.321 38.7232 112.321 37.1977V20.3179H115.5V36.7205C115.5 41.6151 112.575 42.8878 110.192 42.8878C107.808 42.8878 104.884 41.6166 104.884 36.7205V20.3179H108.063Z" fill="#2C6AA4"/>
<path d="M135.685 33.1922V42.5696H132.506V33.0971L127.833 20.3179H131.33L134.095 29.154H134.286L136.987 20.3179H140.356L135.683 33.1922H135.685Z" fill="#2C6AA4"/>
<path d="M150.242 40.8526C149.797 41.6466 149.192 42.0927 148.717 42.3469C147.795 42.8554 146.778 42.8866 146.237 42.8866C145.092 42.8866 143.757 42.6011 142.708 41.2972C141.691 40.026 141.563 38.4366 141.563 37.4196V26.1673C141.563 24.8322 141.627 23.4658 142.612 22.0979C143.883 20.3182 145.886 20 147.093 20C148.746 20 150.144 20.5397 151.035 21.4303C151.892 22.2882 152.655 23.7185 152.655 25.7852V26.6758H149.476V25.5637C149.476 25.024 149.412 24.3237 148.84 23.7512C148.522 23.4331 147.982 23.1149 147.124 23.1149C146.266 23.1149 145.725 23.4643 145.344 23.9089C144.741 24.6404 144.741 25.467 144.741 26.261V36.6866C144.741 37.3542 144.772 38.3072 145.281 38.9748C145.663 39.4521 146.298 39.7702 147.06 39.7702C147.728 39.7702 148.491 39.4208 148.904 38.8796C149.476 38.1481 149.476 37.0672 149.476 36.2732V33.2847H146.775V30.4241H152.655V42.5669H151.066L150.239 40.8512" fill="#2C6AA4"/>
<path d="M159.523 20.3179V37.1977C159.523 38.7232 160.254 39.7729 161.652 39.7729C163.049 39.7729 163.781 38.7232 163.781 37.1977V20.3179H166.96V36.7205C166.96 41.6151 164.035 42.8878 161.652 42.8878C159.268 42.8878 156.344 41.6166 156.344 36.7205V20.3179H159.523Z" fill="#2C6AA4"/>
<path d="M173.954 20.3179L179.262 34.3044V20.3179H182.441V42.5696H179.262L173.954 28.5831V42.5696H170.775V20.3179H173.954Z" fill="#2C6AA4"/>
<path d="M73.7498 20.4683L68.8076 42.7378H72.0682L75.024 26.8898L78.1835 42.7378H81.343L76.4514 20.4683H73.7498Z" fill="#1783C1"/>
<path d="M121.282 20.4683L116.338 42.7378H119.6L122.556 26.8898L125.715 42.7378H128.875L123.983 20.4683H121.282Z" fill="#1783C1"/>
<path d="M4.92187 27.0702C4.92187 26.604 4.73667 26.1569 4.40702 25.8273C4.07736 25.4976 3.63025 25.3124 3.16405 25.3124H2.81249L2.72108 25.2632C2.3206 25.9222 2.10898 26.6787 2.10937 27.4499V28.828H3.16405C3.3951 28.8288 3.62401 28.7838 3.83762 28.6957C4.05122 28.6077 4.24529 28.4782 4.40867 28.3148C4.57205 28.1515 4.7015 27.9574 4.78957 27.7438C4.87765 27.5302 4.92261 27.3013 4.92187 27.0702Z" fill="#FF942C"/>
<path d="M38.6719 25.3125C38.6719 25.3125 39.375 28.125 40.7812 28.8281C41.8391 29.2739 42.9733 29.5103 44.1211 29.5242C43.8072 28.318 43.1019 27.25 42.1157 26.4878C41.1296 25.7256 39.9183 25.3122 38.6719 25.3125Z" fill="#FF942C"/>
<path d="M26.1211 17.0859L30.2344 25.3125H33.75L29.1094 19.125C28.3659 18.1338 27.3151 17.4168 26.1211 17.0859Z" fill="#ABF5FF"/>
<path d="M19.6875 18.9844V25.3125H27.4219L24.6094 18.9844H19.6875Z" fill="#89F2FF"/>
<path d="M10.5469 18.9844L8.4375 25.3125H17.5781V18.9844H10.5469Z" fill="#89F2FF"/>
<path d="M12.6562 41.4844C11.4913 41.4844 10.5469 40.54 10.5469 39.375C10.5469 38.21 11.4913 37.2656 12.6562 37.2656C13.8212 37.2656 14.7656 38.21 14.7656 39.375C14.7656 40.54 13.8212 41.4844 12.6562 41.4844Z" fill="#595751"/>
<path d="M35.1562 41.4844C33.9913 41.4844 33.0469 40.54 33.0469 39.375C33.0469 38.21 33.9913 37.2656 35.1562 37.2656C36.3212 37.2656 37.2656 38.21 37.2656 39.375C37.2656 40.54 36.3212 41.4844 35.1562 41.4844Z" fill="#595751"/>
<path d="M35.1562 34.4531C34.1828 34.4531 33.2312 34.7418 32.4218 35.2826C31.6124 35.8234 30.9816 36.5921 30.609 37.4915C30.2365 38.3908 30.139 39.3805 30.3289 40.3352C30.5189 41.29 30.9876 42.167 31.676 42.8553C32.3643 43.5436 33.2413 44.0124 34.196 44.2023C35.1508 44.3922 36.1404 44.2947 37.0398 43.9222C37.9391 43.5497 38.7078 42.9188 39.2486 42.1094C39.7895 41.3001 40.0781 40.3485 40.0781 39.375C40.0786 38.7285 39.9516 38.0883 39.7044 37.4909C39.4572 36.8936 39.0947 36.3508 38.6376 35.8937C38.1804 35.4365 37.6377 35.074 37.0403 34.8268C36.443 34.5797 35.8027 34.4527 35.1562 34.4531ZM33.0469 39.375C33.0469 38.9578 33.1706 38.55 33.4024 38.2031C33.6341 37.8562 33.9636 37.5858 34.349 37.4262C34.7345 37.2665 35.1586 37.2248 35.5678 37.3062C35.9769 37.3875 36.3528 37.5884 36.6478 37.8834C36.9428 38.1785 37.1437 38.5543 37.2251 38.9635C37.3065 39.3727 37.2647 39.7968 37.1051 40.1822C36.9454 40.5677 36.675 40.8971 36.3282 41.1289C35.9813 41.3607 35.5734 41.4844 35.1562 41.4844C34.5968 41.4844 34.0603 41.2621 33.6647 40.8666C33.2691 40.471 33.0469 39.9344 33.0469 39.375Z" fill="#75726A"/>
<path d="M12.6562 34.4531C11.6828 34.4531 10.7312 34.7418 9.9218 35.2826C9.1124 35.8234 8.48156 36.5921 8.10903 37.4915C7.73651 38.3908 7.63904 39.3805 7.82895 40.3352C8.01886 41.29 8.48762 42.167 9.17596 42.8553C9.86429 43.5436 10.7413 44.0124 11.696 44.2023C12.6508 44.3922 13.6404 44.2947 14.5398 43.9222C15.4391 43.5497 16.2078 42.9188 16.7486 42.1094C17.2895 41.3001 17.5781 40.3485 17.5781 39.375C17.5786 38.7285 17.4516 38.0883 17.2044 37.4909C16.9572 36.8936 16.5947 36.3508 16.1376 35.8937C15.6804 35.4365 15.1377 35.074 14.5403 34.8268C13.943 34.5797 13.3027 34.4527 12.6562 34.4531ZM10.5469 39.375C10.5469 38.9578 10.6706 38.55 10.9024 38.2031C11.1342 37.8562 11.4636 37.5858 11.849 37.4262C12.2345 37.2665 12.6586 37.2248 13.0678 37.3062C13.4769 37.3875 13.8528 37.5884 14.1478 37.8834C14.4428 38.1785 14.6437 38.5543 14.7251 38.9635C14.8065 39.3727 14.7647 39.7968 14.6051 40.1822C14.4454 40.5677 14.175 40.8971 13.8282 41.1289C13.4813 41.3607 13.0734 41.4844 12.6562 41.4844C12.0968 41.4844 11.5603 41.2621 11.1647 40.8666C10.7691 40.471 10.5469 39.9344 10.5469 39.375Z" fill="#75726A"/>
<path d="M19.6875 18.9844H24.6094L27.4219 25.3125H19.6875V18.9844ZM10.5469 18.9844H17.5781V25.3125H8.4375L10.5469 18.9844ZM3.16406 25.3125C3.63026 25.3125 4.07737 25.4977 4.40703 25.8274C4.73668 26.157 4.92188 26.6041 4.92188 27.0703C4.92188 27.5365 4.73668 27.9836 4.40703 28.3133C4.07737 28.643 3.63026 28.8281 3.16406 28.8281H2.10938V37.9688C2.11049 38.3414 2.25901 38.6984 2.52249 38.9619C2.78597 39.2254 3.14301 39.3739 3.51562 39.375H6.32812C6.32812 35.4938 9.16172 32.3438 12.6563 32.3438C16.1508 32.3438 18.9844 35.4938 18.9844 39.375H28.8281C28.8281 35.4938 31.6617 32.3438 35.1562 32.3438C38.6508 32.3438 41.4844 35.4938 41.4844 39.375H42.8906C43.2632 39.3739 43.6203 39.2254 43.8838 38.9619C44.1472 38.6984 44.2958 38.3414 44.2969 37.9688V30.9375C44.2961 30.461 44.237 29.9864 44.1211 29.5242C42.9733 29.5103 41.8391 29.2739 40.7812 28.8281C39.375 28.125 38.6719 25.3125 38.6719 25.3125H30.2344L26.1211 17.086C25.6297 16.9446 25.1207 16.8736 24.6094 16.875H11.9109C11.0494 16.8745 10.1994 17.072 9.42638 17.4524C8.65341 17.8328 7.97826 18.3858 7.45312 19.0688L2.98125 24.8766C2.88812 25.0011 2.80129 25.1301 2.7211 25.2633L2.8125 25.3125H3.16406Z" fill="#0660B3"/>
<path d="M6.32812 39.375H7.73438C7.73438 38.0696 8.25293 36.8177 9.17596 35.8947C10.099 34.9717 11.3509 34.4531 12.6562 34.4531C13.9616 34.4531 15.2135 34.9717 16.1365 35.8947C17.0596 36.8177 17.5781 38.0696 17.5781 39.375H18.9844C18.9844 35.4938 16.1508 32.3438 12.6562 32.3438C9.16172 32.3438 6.32812 35.4938 6.32812 39.375Z" fill="#6BAAE3"/>
<path d="M28.8281 39.375H30.2344C30.2344 38.0696 30.7529 36.8177 31.676 35.8947C32.599 34.9717 33.8509 34.4531 35.1562 34.4531C36.4616 34.4531 37.7135 34.9717 38.6365 35.8947C39.5596 36.8177 40.0781 38.0696 40.0781 39.375H41.4844C41.4844 35.4938 38.6508 32.3438 35.1562 32.3438C31.6617 32.3438 28.8281 35.4938 28.8281 39.375Z" fill="#6BAAE3"/>
<path d="M23.9062 18.9844L19.6875 23.2031V18.9844H23.9062Z" fill="#ABF5FF"/>
<path d="M24.609 18.9844L25.6904 21.4186L21.7965 25.3125H19.6871V23.2031L23.9059 18.9844H24.609Z" fill="#89F2FF"/>
<path d="M27.4219 25.3124H21.7969L25.6908 21.4185L27.4219 25.3124Z" fill="#6BDFED"/>
<path d="M17.5781 25.3125H11.9531L17.5781 19.6875V25.3125Z" fill="#6BDFED"/>
<path d="M8.78906 24.2578L14.0625 18.9844H17.5781V19.6875L11.9531 25.3125H8.4375L8.78906 24.2578Z" fill="#89F2FF"/>
<path d="M10.5469 18.9844H14.0625L8.78906 24.2578L10.5469 18.9844Z" fill="#ABF5FF"/>
<path d="M17.5781 25.3125V18.9844H10.5961C10.3452 18.4109 10.1532 17.8135 10.023 17.2013C10.6291 16.9855 11.2676 16.8752 11.9109 16.875H24.6094C25.1207 16.8736 25.6297 16.9446 26.1211 17.086L30.2344 25.3125H38.6719C38.6719 25.3125 39.375 28.125 40.7812 28.8281C41.8391 29.2739 42.9733 29.5103 44.1211 29.5242C44.237 29.9864 44.2961 30.461 44.2969 30.9375V32.3438C32.7593 32.3438 22.5633 29.5706 16.3125 25.3125H17.5781ZM19.6875 25.3125H27.4219L24.6094 18.9844H19.6875V25.3125Z" fill="#1E7BD0"/>
<path d="M35.1562 36.5625C35.7125 36.5625 36.2563 36.7275 36.7188 37.0365C37.1813 37.3455 37.5418 37.7848 37.7547 38.2987C37.9675 38.8126 38.0232 39.3781 37.9147 39.9237C37.8062 40.4693 37.5383 40.9704 37.145 41.3637C36.7517 41.7571 36.2505 42.0249 35.7049 42.1335C35.1594 42.242 34.5939 42.1863 34.08 41.9734C33.566 41.7605 33.1268 41.4001 32.8177 40.9375C32.5087 40.475 32.3437 39.9313 32.3437 39.375C32.3437 38.6291 32.6401 37.9137 33.1675 37.3863C33.695 36.8588 34.4103 36.5625 35.1562 36.5625ZM35.1562 41.4844C35.5734 41.4844 35.9813 41.3607 36.3282 41.1289C36.675 40.8971 36.9454 40.5677 37.1051 40.1822C37.2647 39.7968 37.3065 39.3727 37.2251 38.9635C37.1437 38.5543 36.9428 38.1784 36.6478 37.8834C36.3528 37.5884 35.9769 37.3875 35.5678 37.3062C35.1586 37.2248 34.7345 37.2665 34.349 37.4262C33.9636 37.5858 33.6341 37.8562 33.4024 38.2031C33.1706 38.55 33.0469 38.9578 33.0469 39.375C33.0469 39.9344 33.2691 40.471 33.6647 40.8666C34.0603 41.2621 34.5968 41.4844 35.1562 41.4844Z" fill="#63615A"/>
<path d="M12.6562 36.5625C13.2125 36.5625 13.7563 36.7275 14.2188 37.0365C14.6813 37.3455 15.0418 37.7848 15.2547 38.2987C15.4675 38.8126 15.5232 39.3781 15.4147 39.9237C15.3062 40.4693 15.0383 40.9704 14.645 41.3637C14.2517 41.7571 13.7505 42.0249 13.2049 42.1335C12.6594 42.242 12.0939 42.1863 11.58 41.9734C11.066 41.7605 10.6268 41.4001 10.3177 40.9375C10.0087 40.475 9.84375 39.9313 9.84375 39.375C9.84375 38.6291 10.1401 37.9137 10.6675 37.3863C11.195 36.8588 11.9103 36.5625 12.6562 36.5625ZM12.6562 41.4844C13.0734 41.4844 13.4813 41.3607 13.8282 41.1289C14.175 40.8971 14.4454 40.5677 14.6051 40.1822C14.7647 39.7968 14.8065 39.3727 14.7251 38.9635C14.6437 38.5543 14.4428 38.1784 14.1478 37.8834C13.8528 37.5884 13.4769 37.3875 13.0678 37.3062C12.6586 37.2248 12.2345 37.2665 11.849 37.4262C11.4636 37.5858 11.1341 37.8562 10.9024 38.2031C10.6706 38.55 10.5469 38.9578 10.5469 39.375C10.5469 39.9344 10.7691 40.471 11.1647 40.8666C11.5603 41.2621 12.0968 41.4844 12.6562 41.4844Z" fill="#63615A"/>
<path d="M19.6874 18.2813H24.6093C24.7453 18.2812 24.8785 18.3207 24.9925 18.3948C25.1066 18.4689 25.1967 18.5746 25.2519 18.6989L28.0644 25.027C28.112 25.1341 28.1321 25.2513 28.1228 25.3681C28.1135 25.4849 28.0752 25.5975 28.0114 25.6957C27.9475 25.7939 27.8602 25.8747 27.7572 25.9305C27.6542 25.9864 27.5389 26.0156 27.4218 26.0156H19.6874C19.5009 26.0156 19.3221 25.9415 19.1902 25.8097C19.0584 25.6778 18.9843 25.499 18.9843 25.3125V18.9844C18.9843 18.7979 19.0584 18.6191 19.1902 18.4872C19.3221 18.3553 19.5009 18.2813 19.6874 18.2813ZM19.6874 25.3125H27.4218L24.6093 18.9844H19.6874V25.3125Z" fill="#8F8B81"/>
<path d="M7.77094 25.0903L9.88031 18.7622C9.92692 18.6222 10.0164 18.5005 10.136 18.4142C10.2556 18.3279 10.3994 18.2814 10.5469 18.2812H17.5781C17.7646 18.2812 17.9434 18.3553 18.0753 18.4872C18.2072 18.6191 18.2812 18.7979 18.2812 18.9844V25.3125C18.2812 25.499 18.2072 25.6778 18.0753 25.8097C17.9434 25.9415 17.7646 26.0156 17.5781 26.0156H8.4375C8.32615 26.0155 8.21641 25.989 8.11731 25.9382C8.01822 25.8874 7.93261 25.8138 7.86752 25.7235C7.80244 25.6331 7.75974 25.5286 7.74295 25.4185C7.72616 25.3085 7.73575 25.196 7.77094 25.0903ZM17.5781 25.3125V18.9844H10.5469L8.4375 25.3125H17.5781Z" fill="#8F8B81"/>
<path d="M11.0389 22.0157C10.5882 21.5647 10.7318 20.6904 11.3598 20.0629C11.9877 19.4354 12.8621 19.2924 13.3128 19.7434C13.7635 20.1944 13.6199 21.0687 12.9919 21.6962C12.364 22.3237 11.4896 22.4668 11.0389 22.0157Z" fill="#F6FAFD"/>
<path d="M13.7146 23.5677C13.4882 23.3411 13.5602 22.902 13.8756 22.5868C14.1909 22.2717 14.6301 22.2 14.8566 22.4266C15.083 22.6532 15.011 23.0924 14.6956 23.4075C14.3803 23.7226 13.9411 23.7943 13.7146 23.5677Z" fill="#F6FAFD"/>
</svg>
