<svg width="329" height="329" viewBox="0 0 329 329" fill="none" xmlns="http://www.w3.org/2000/svg">
<path d="M164.5 283.974C230.484 283.974 283.974 230.484 283.974 164.5C283.974 98.516 230.484 45.0254 164.5 45.0254C98.516 45.0254 45.0254 98.516 45.0254 164.5C45.0254 230.484 98.516 283.974 164.5 283.974Z" fill="url(#paint0_linear_101_526)"/>
<g opacity="0.81">
<path d="M86.7853 123.721C86.4528 123.721 86.117 123.688 85.778 123.615C83.174 123.063 81.5129 120.502 82.0656 117.9C85.5965 101.286 95.4151 87.554 110.459 78.1852C122.778 70.5144 138.272 66.1497 152.964 66.2316C155.626 66.2445 157.772 68.4132 157.76 71.075C157.747 73.7369 155.576 75.8767 152.916 75.8703C152.823 75.8703 152.727 75.8703 152.632 75.8703C131.708 75.8703 98.371 87.5491 91.4938 119.905C91.0134 122.17 89.0118 123.721 86.7853 123.721Z" fill="white"/>
</g>
<path d="M213.836 140.653C212.594 140.653 211.418 139.929 210.893 138.732C210.731 138.383 210.289 137.517 210.13 137.281C207.817 133.882 202.617 131.686 196.883 131.686C191.555 131.686 186.666 133.583 184.123 136.637C183.616 137.246 183.222 137.884 182.954 138.536C182.274 140.176 180.396 140.953 178.756 140.276C177.116 139.596 176.338 137.718 177.016 136.078C177.534 134.828 178.263 133.633 179.185 132.526C182.973 127.977 189.588 125.262 196.883 125.262C204.803 125.262 211.915 128.483 215.443 133.667C215.997 134.481 216.737 136.041 216.824 136.259C217.476 137.909 216.667 139.776 215.017 140.428C214.628 140.581 214.23 140.653 213.836 140.653ZM210.848 138.619C210.855 138.635 210.867 138.671 210.89 138.721C210.875 138.687 210.861 138.653 210.848 138.619Z" fill="#451716"/>
<path d="M149.045 140.652C147.804 140.652 146.629 139.929 146.103 138.732C145.941 138.383 145.498 137.514 145.339 137.28C143.025 133.881 137.825 131.685 132.092 131.685C126.763 131.685 121.875 133.582 119.332 136.636C118.824 137.244 118.431 137.882 118.162 138.533C117.484 140.173 115.605 140.951 113.965 140.273C112.324 139.595 111.547 137.715 112.225 136.075C112.742 134.825 113.471 133.63 114.394 132.523C118.182 127.974 124.797 125.259 132.092 125.259C140.012 125.259 147.122 128.48 150.651 133.664C151.202 134.473 151.943 136.032 152.029 136.25C152.685 137.898 151.878 139.767 150.23 140.422C149.841 140.578 149.44 140.652 149.045 140.652ZM146.058 138.624C146.065 138.64 146.077 138.674 146.098 138.722C146.084 138.69 146.071 138.657 146.058 138.624Z" fill="#451716"/>
<path d="M220.784 245.914H108.217C99.6451 245.914 92.6973 238.966 92.6973 230.394V192.035C92.6973 183.463 99.6451 176.516 108.217 176.516H220.784C229.356 176.516 236.304 183.463 236.304 192.035V230.394C236.304 238.966 229.356 245.914 220.784 245.914Z" fill="white"/>
<path d="M264.32 230.176L225.939 223.234C223.319 222.759 220.812 224.5 220.339 227.119C219.865 229.737 221.604 232.245 224.223 232.719L258.037 238.835C260.256 236.046 262.354 233.157 264.32 230.176Z" fill="white"/>
<path d="M102.945 223.235L64.668 230.159C66.6343 233.142 68.7307 236.03 70.9492 238.818L104.66 232.719C107.279 232.246 109.019 229.738 108.545 227.119C108.073 224.501 105.565 222.761 102.945 223.235Z" fill="white"/>
<path d="M283.846 170.052L225.164 192.076C222.673 193.011 221.41 195.79 222.345 198.282C223.071 200.216 224.907 201.41 226.858 201.41C227.42 201.41 227.992 201.31 228.551 201.101L282.882 180.709C283.358 177.202 283.681 173.647 283.846 170.052Z" fill="white"/>
<path d="M103.822 192.077L45.1543 170.058C45.3182 173.653 45.6427 177.208 46.1182 180.715L100.435 201.101C100.993 201.309 101.565 201.409 102.128 201.409C104.079 201.409 105.915 200.215 106.641 198.281C107.576 195.79 106.315 193.012 103.822 192.077Z" fill="white"/>
<defs>
<linearGradient id="paint0_linear_101_526" x1="45.0254" y1="164.5" x2="283.974" y2="164.5" gradientUnits="userSpaceOnUse">
<stop stop-color="#FEDC52"/>
<stop offset="0.9947" stop-color="#FCB117"/>
</linearGradient>
</defs>
</svg>
