<svg width="330" height="329" viewBox="0 0 330 329" fill="none" xmlns="http://www.w3.org/2000/svg">
<path d="M234.609 82.25C251.696 82.25 265.547 68.4408 265.547 51.4062C265.547 34.3717 251.696 20.5625 234.609 20.5625C217.523 20.5625 203.672 34.3717 203.672 51.4062C203.672 68.4408 217.523 82.25 234.609 82.25Z" stroke="#37474F" stroke-miterlimit="10" stroke-linecap="round" stroke-linejoin="round"/>
<path d="M256.266 33.4141L258.328 31.3578C252.656 24.675 244.406 20.5625 234.609 20.5625C217.594 20.5625 203.672 34.4422 203.672 51.4062H206.766C224.812 51.4062 242.344 45.2375 256.266 33.4141Z" fill="#FFB300" stroke="#37474F" stroke-miterlimit="10" stroke-linecap="round" stroke-linejoin="round"/>
<path d="M234.609 82.2502C228.937 82.2502 223.781 80.708 219.141 78.1377V87.3908L234.609 110.524L250.078 87.3908V78.1377C245.438 80.708 240.281 82.2502 234.609 82.2502Z" stroke="#37474F" stroke-miterlimit="10" stroke-linecap="round" stroke-linejoin="round"/>
<path d="M286.172 128.516V121.319C286.172 111.552 280.5 102.813 271.734 98.1859L250.078 87.3906" stroke="#37474F" stroke-miterlimit="10" stroke-linecap="round" stroke-linejoin="round"/>
<path d="M183.047 128.516V121.319C183.047 111.552 188.719 102.813 197.484 98.1859L219.141 87.3906" stroke="#37474F" stroke-miterlimit="10" stroke-linecap="round" stroke-linejoin="round"/>
<path d="M219.141 87.3906L216.562 110.523H252.656L250.078 87.3906L234.609 110.523L219.141 87.3906Z" stroke="#37474F" stroke-miterlimit="10" stroke-linecap="round" stroke-linejoin="round"/>
<path d="M234.609 110.523V128.516" stroke="#37474F" stroke-miterlimit="10" stroke-linecap="round" stroke-linejoin="round"/>
<path d="M288.75 146.508H180.469C173.25 146.508 167.578 140.853 167.578 133.656V15.4219C167.578 8.225 173.25 2.57031 180.469 2.57031H288.75C295.969 2.57031 301.641 8.225 301.641 15.4219V133.656C301.641 140.853 295.969 146.508 288.75 146.508Z" stroke="#37474F" stroke-miterlimit="10" stroke-linecap="round" stroke-linejoin="round"/>
<path d="M175.312 257.545C172.734 260.115 170.156 262.172 167.578 264.228L186.656 283.248L201.094 268.854L182.016 249.834C179.953 252.404 177.891 254.975 175.312 257.545Z" stroke="#37474F" stroke-miterlimit="10" stroke-linecap="round" stroke-linejoin="round"/>
<path d="M175.312 170.669C151.078 146.508 111.891 146.508 87.6562 170.669C63.4219 194.829 63.4219 233.898 87.6562 258.059C111.891 282.22 151.078 282.22 175.312 258.059C199.547 233.384 199.547 194.315 175.312 170.669ZM164.484 246.75C146.437 264.742 117.047 264.742 99 246.75C80.9531 228.758 80.9531 199.456 99 181.464C117.047 163.472 146.437 163.472 164.484 181.464C182.531 199.456 182.531 228.758 164.484 246.75Z" fill="#90CAF9" stroke="#37474F" stroke-miterlimit="10" stroke-linecap="round" stroke-linejoin="round"/>
<path d="M199.031 270.397L188.203 281.192C186.141 283.248 186.141 286.333 188.203 288.389L224.812 324.887C226.875 326.944 229.969 326.944 232.031 324.887L242.859 314.092C244.922 312.036 244.922 308.951 242.859 306.895L206.25 270.397C204.187 268.34 201.094 268.34 199.031 270.397Z" stroke="#37474F" stroke-miterlimit="10" stroke-linecap="round" stroke-linejoin="round"/>
<path d="M67.0312 100.242H28.3594L79.9219 48.8359V87.3906C79.9219 94.5875 74.25 100.242 67.0312 100.242Z" stroke="#37474F" stroke-miterlimit="10" stroke-linecap="round" stroke-linejoin="round"/>
<path d="M203.672 213.85H218.625" stroke="#37474F" stroke-miterlimit="10" stroke-linecap="round" stroke-linejoin="round"/>
<path d="M95.3906 213.85H167.578" stroke="#37474F" stroke-miterlimit="10" stroke-linecap="round" stroke-linejoin="round"/>
<path d="M44.3438 213.85H59.2969" stroke="#37474F" stroke-miterlimit="10" stroke-linecap="round" stroke-linejoin="round"/>
<path d="M234.609 284.277V156.789" stroke="#37474F" stroke-miterlimit="10" stroke-linecap="round" stroke-linejoin="round"/>
<path d="M157.266 48.8359H79.9219L28.3594 100.242V282.734C28.3594 289.931 34.0313 295.586 41.25 295.586H180.469" stroke="#37474F" stroke-miterlimit="10" stroke-linecap="round" stroke-linejoin="round"/>
</svg>
