<svg width="370" height="369" viewBox="0 0 370 369" fill="none" xmlns="http://www.w3.org/2000/svg">
<path d="M185 333.686C267.616 333.686 334.59 266.893 334.59 184.5C334.59 102.107 267.616 35.3145 185 35.3145C102.384 35.3145 35.4102 102.107 35.4102 184.5C35.4102 266.893 102.384 333.686 185 333.686Z" fill="#F0C48A"/>
<path d="M264.161 160.251H105.837C101.835 160.251 98.5903 157.015 98.5903 153.024V104.568C98.5903 100.577 101.835 97.3408 105.837 97.3408H264.161C268.164 97.3408 271.408 100.577 271.408 104.568V153.024C271.408 157.015 268.164 160.251 264.161 160.251Z" fill="#A4CFF2"/>
<path d="M264.161 97.3428H247.62C251.622 97.3428 254.866 100.579 254.866 104.57V153.026C254.866 157.017 251.622 160.253 247.62 160.253H264.161C268.165 160.253 271.408 157.017 271.408 153.026V104.569C271.408 100.577 268.165 97.3428 264.161 97.3428Z" fill="#7BABF1"/>
<path d="M264.161 164.575H105.837C99.4503 164.575 94.2544 159.393 94.2544 153.024V104.568C94.2544 98.1985 99.4503 93.0166 105.837 93.0166H264.161C270.548 93.0166 275.744 98.1985 275.744 104.568V153.024C275.744 159.393 270.548 164.575 264.161 164.575ZM105.837 101.666C104.233 101.666 102.926 102.968 102.926 104.569V153.025C102.926 154.625 104.231 155.928 105.837 155.928H264.161C265.765 155.928 267.072 154.627 267.072 153.025V104.568C267.072 102.968 265.767 101.665 264.161 101.665H105.837V101.666Z" fill="#4C4372"/>
<path d="M122.581 137.369C127.329 137.369 131.178 133.53 131.178 128.795C131.178 124.06 127.329 120.222 122.581 120.222C117.833 120.222 113.984 124.06 113.984 128.795C113.984 133.53 117.833 137.369 122.581 137.369Z" fill="#4C4372"/>
<path d="M251.317 133.12H150.037C147.642 133.12 145.701 131.184 145.701 128.796C145.701 126.407 147.642 124.472 150.037 124.472H251.317C253.712 124.472 255.653 126.407 255.653 128.796C255.653 131.184 253.712 133.12 251.317 133.12Z" fill="#4C4372"/>
<path d="M264.161 223.159H105.837C101.835 223.159 98.5903 219.923 98.5903 215.932V167.477C98.5903 163.486 101.835 160.25 105.837 160.25H264.161C268.164 160.25 271.408 163.486 271.408 167.477V215.932C271.408 219.924 268.164 223.159 264.161 223.159Z" fill="#FD919E"/>
<path d="M264.161 160.251H247.62C251.622 160.251 254.866 163.485 254.866 167.478V215.933C254.866 219.924 251.622 223.16 247.62 223.16H264.161C268.165 223.16 271.408 219.924 271.408 215.933V167.477C271.408 163.485 268.165 160.251 264.161 160.251Z" fill="#E8677D"/>
<path d="M264.161 227.483H105.837C99.4503 227.483 94.2544 222.301 94.2544 215.932V167.477C94.2544 161.108 99.4503 155.926 105.837 155.926H264.161C270.548 155.926 275.744 161.108 275.744 167.477V215.932C275.744 222.303 270.548 227.483 264.161 227.483ZM105.837 164.576C104.233 164.576 102.926 165.877 102.926 167.479V215.933C102.926 217.533 104.231 218.836 105.837 218.836H264.161C265.765 218.836 267.072 217.534 267.072 215.933V167.477C267.072 165.877 265.767 164.574 264.161 164.574H105.837V164.576Z" fill="#4C4372"/>
<path d="M122.581 200.279C127.329 200.279 131.178 196.44 131.178 191.705C131.178 186.97 127.329 183.132 122.581 183.132C117.833 183.132 113.984 186.97 113.984 191.705C113.984 196.44 117.833 200.279 122.581 200.279Z" fill="#4C4372"/>
<path d="M251.317 196.029H150.037C147.642 196.029 145.701 194.093 145.701 191.705C145.701 189.317 147.642 187.381 150.037 187.381H251.317C253.712 187.381 255.653 189.317 255.653 191.705C255.653 194.093 253.712 196.029 251.317 196.029Z" fill="#4C4372"/>
<path d="M264.161 286.067H105.837C101.835 286.067 98.5903 282.831 98.5903 278.84V230.384C98.5903 226.393 101.835 223.157 105.837 223.157H264.161C268.164 223.157 271.408 226.393 271.408 230.384V278.84C271.408 282.833 268.164 286.067 264.161 286.067Z" fill="#A4CFF2"/>
<path d="M264.161 223.158H247.62C251.622 223.158 254.866 226.394 254.866 230.385V278.841C254.866 282.832 251.622 286.068 247.62 286.068H264.161C268.165 286.068 271.408 282.832 271.408 278.841V230.385C271.408 226.394 268.165 223.158 264.161 223.158Z" fill="#7BABF1"/>
<path d="M264.161 290.392H105.837C99.4503 290.392 94.2544 285.21 94.2544 278.84V230.384C94.2544 224.015 99.4503 218.833 105.837 218.833H264.161C270.548 218.833 275.744 224.015 275.744 230.384V278.84C275.744 285.211 270.548 290.392 264.161 290.392ZM105.837 227.483C104.233 227.483 102.926 228.784 102.926 230.386V278.842C102.926 280.442 104.231 281.745 105.837 281.745H264.161C265.765 281.745 267.072 280.443 267.072 278.842V230.386C267.072 228.786 265.767 227.483 264.161 227.483H105.837Z" fill="#4C4372"/>
<path d="M122.581 263.188C127.329 263.188 131.178 259.35 131.178 254.614C131.178 249.879 127.329 246.041 122.581 246.041C117.833 246.041 113.984 249.879 113.984 254.614C113.984 259.35 117.833 263.188 122.581 263.188Z" fill="#4C4372"/>
<path d="M251.317 258.938H150.037C147.642 258.938 145.701 257.003 145.701 254.614C145.701 252.226 147.642 250.29 150.037 250.29H251.317C253.712 250.29 255.653 252.226 255.653 254.614C255.653 257.003 253.712 258.938 251.317 258.938Z" fill="#4C4372"/>
<path d="M185 203.343C178.429 203.343 173.104 198.032 173.104 191.479V121.487H196.895V191.479C196.895 198.032 191.57 203.343 185 203.343Z" fill="#A4CFF2"/>
<path d="M185 207.668C176.051 207.668 168.769 200.406 168.769 191.479V121.487C168.769 119.099 170.71 117.163 173.105 117.163H196.896C199.291 117.163 201.232 119.099 201.232 121.487V191.479C201.231 200.406 193.949 207.668 185 207.668ZM177.441 125.812V191.479C177.441 195.636 180.832 199.019 185 199.019C189.168 199.019 192.559 195.636 192.559 191.479V125.812H177.441Z" fill="#4C4372"/>
<path d="M185 145.4C210.279 145.4 230.772 124.963 230.772 99.7524C230.772 74.5418 210.279 54.1045 185 54.1045C159.721 54.1045 139.229 74.5418 139.229 99.7524C139.229 124.963 159.721 145.4 185 145.4Z" fill="#D3E6F8"/>
<path d="M185 128.279C200.798 128.279 213.604 115.507 213.604 99.7525C213.604 83.9975 200.798 71.2256 185 71.2256C169.203 71.2256 156.396 83.9975 156.396 99.7525C156.396 115.507 169.203 128.279 185 128.279Z" fill="white"/>
<path d="M185 149.726C157.37 149.726 134.893 127.308 134.893 99.7538C134.893 72.1999 157.37 49.7803 185 49.7803C212.629 49.7803 235.108 72.1985 235.108 99.7524C235.108 127.306 212.629 149.726 185 149.726ZM185 58.4287C162.151 58.4287 143.564 76.9666 143.564 99.7524C143.564 122.538 162.151 141.078 185 141.078C207.849 141.078 226.436 122.54 226.436 99.7538C226.436 76.9681 207.849 58.4287 185 58.4287Z" fill="#4C4372"/>
<path d="M185 132.604C166.837 132.604 152.06 117.867 152.06 99.7525C152.06 81.6383 166.837 66.9014 185 66.9014C203.163 66.9014 217.94 81.6383 217.94 99.7525C217.94 117.867 203.163 132.604 185 132.604ZM185 75.5498C171.618 75.5498 160.732 86.4065 160.732 99.7525C160.732 113.098 171.618 123.955 185 123.955C198.382 123.955 209.268 113.098 209.268 99.7525C209.268 86.4065 198.382 75.5498 185 75.5498Z" fill="#4C4372"/>
<path d="M185 114.366C182.605 114.366 180.664 112.43 180.664 110.041V89.4639C180.664 87.0755 182.605 85.1396 185 85.1396C187.395 85.1396 189.336 87.0755 189.336 89.4639V110.041C189.336 112.43 187.395 114.366 185 114.366Z" fill="#4C4372"/>
<path d="M195.318 104.077H174.684C172.289 104.077 170.348 102.141 170.348 99.7529C170.348 97.3645 172.289 95.4287 174.684 95.4287H195.318C197.713 95.4287 199.654 97.3645 199.654 99.7529C199.654 102.141 197.713 104.077 195.318 104.077Z" fill="#4C4372"/>
</svg>
